<svg width="9" height="6" viewBox="0 0 9 6" fill="none" xmlns="http://www.w3.org/2000/svg">
<path d="M4.43494 0.00446132C4.33517 0.0202125 4.24243 0.0699093 4.17 0.146588L0.170372 4.34765L0.170372 4.34778C0.0693751 4.44106 0.00799782 4.57574 0.000744195 4.72018C-0.00662114 4.86451 0.040918 5.00578 0.13187 5.11066C0.222933 5.21554 0.349484 5.27476 0.481609 5.27427C0.61374 5.27379 0.739957 5.21359 0.830234 5.10809L4.4999 1.25149L8.16956 5.10809L8.16967 5.10809C8.26007 5.21359 8.38617 5.27379 8.5183 5.27427C8.65054 5.27476 8.77698 5.21554 8.86804 5.11066C8.95899 5.00577 9.00653 4.8645 8.99928 4.72018C8.99191 4.57574 8.93053 4.44106 8.82954 4.34778L4.8299 0.14671L4.8299 0.146588C4.72489 0.0360852 4.57959 -0.0162939 4.43497 0.00446132L4.43494 0.00446132Z" fill="#0E0B13"/>
</svg>