<svg width="6" height="10" viewBox="0 0 6 10" fill="none" xmlns="http://www.w3.org/2000/svg">
<path d="M0.00507501 4.92752C0.0229935 4.81667 0.0795285 4.71363 0.166758 4.63316L4.94588 0.189119L4.94602 0.189119C5.05214 0.076901 5.20535 0.00870373 5.36966 0.000644217C5.53385 -0.00753928 5.69456 0.0452819 5.81387 0.14634C5.93318 0.247521 6.00055 0.388133 6 0.534939C5.99944 0.681751 5.93096 0.821992 5.81095 0.9223L1.42369 4.9997L5.81095 9.07711L5.81095 9.07723C5.93096 9.17767 5.99944 9.31778 6 9.46459C6.00055 9.61153 5.93319 9.75202 5.81387 9.85319C5.69455 9.95425 5.53384 10.0071 5.36967 9.99901C5.20534 9.99083 5.05213 9.92263 4.94602 9.81041L0.166897 5.36638L0.166758 5.36638C0.0410502 5.2497 -0.0185361 5.08825 0.00507501 4.92756L0.00507501 4.92752Z" fill="#D3D3D3"/>
</svg>
