<svg width="6" height="10" viewBox="0 0 6 10" fill="none" xmlns="http://www.w3.org/2000/svg">
<path d="M5.99492 4.92752C5.97701 4.81667 5.92047 4.71363 5.83324 4.63316L1.05412 0.189119L1.05398 0.189119C0.947863 0.076901 0.794653 0.00870373 0.630335 0.000644217C0.466153 -0.00753928 0.305444 0.0452819 0.186133 0.14634C0.0668153 0.247521 -0.00055134 0.388133 3.20844e-06 0.534939C0.000558711 0.681751 0.0690373 0.821992 0.189049 0.9223L4.57631 4.9997L0.189048 9.07711L0.189048 9.07723C0.0690366 9.17767 0.000557005 9.31778 2.4308e-06 9.46459C-0.000553097 9.61153 0.0668144 9.75202 0.186132 9.85319C0.30545 9.95425 0.466159 10.0071 0.630334 9.99901C0.794656 9.99083 0.947865 9.92263 1.05398 9.81041L5.8331 5.36638L5.83324 5.36638C5.95895 5.2497 6.01854 5.08825 5.99492 4.92756L5.99492 4.92752Z" fill="#0E0B13"/>
</svg>
