<svg width="159" height="30" viewBox="0 0 159 30" fill="none" xmlns="http://www.w3.org/2000/svg">
<g clip-path="url(#clip0_742_19175)">
<path d="M35.0732 6.47846C35.0732 5.09128 35.843 4.31567 37.2773 4.31567C38.7116 4.31567 39.4814 5.09288 39.4814 6.47846C39.4814 7.86404 38.6857 8.72565 37.2773 8.72565C35.8689 8.72565 35.0732 7.92138 35.0732 6.47846ZM35.6037 10.9999H38.9753V24.5914H35.6037V10.9999Z" fill="#0E0B13"/>
<path d="M53.4968 16.4642V24.5914H50.1251V16.6585C50.1251 14.827 49.2228 13.9128 47.6025 13.9128C45.717 13.9128 44.5494 15.3 44.5494 18.1014V24.5914H41.1777V10.9999H44.5494V14.1613C45.1865 11.9698 46.5142 10.7212 48.8493 10.7212C51.9283 10.7212 53.4953 12.6355 53.4953 16.4626L53.4968 16.4642Z" fill="#0E0B13"/>
<path d="M63.9564 14.1072H60.1076V24.5915H56.736V14.1072H54.0015V11H56.736V8.64292C56.736 6.11861 58.3547 4.42725 60.7707 4.42725H63.8771V7.53446H60.1076V11.0016H63.9564V14.1088V14.1072Z" fill="#0E0B13"/>
<path d="M77.388 17.8244C77.388 22.1516 74.2282 24.8702 70.4328 24.8702C66.6374 24.8702 63.4502 22.1516 63.4502 17.8244C63.4502 13.4973 66.61 10.7229 70.4328 10.7229C74.2557 10.7229 77.388 13.4686 77.388 17.8244ZM73.9904 17.8244C73.9904 15.1615 72.8488 13.9129 70.4328 13.9129C68.0169 13.9129 66.8493 15.1615 66.8493 17.8244C66.8493 20.4873 67.991 21.6802 70.4328 21.6802C72.8747 21.6802 73.9904 20.4315 73.9904 17.8244Z" fill="#0E0B13"/>
<path d="M77.2814 22.4557C77.2554 21.0128 78.077 20.2085 79.4854 20.2085C80.8938 20.2085 81.7413 21.0128 81.7413 22.4557C81.7673 23.9257 80.9457 24.73 79.4854 24.73C78.0252 24.73 77.2814 23.9257 77.2814 22.4557Z" fill="#0E0B13"/>
<path d="M95.6792 16.4643V24.5915H92.3075V16.6586C92.3075 14.8271 91.4051 13.9129 89.7849 13.9129C87.8993 13.9129 86.7318 15.3001 86.7318 18.1015V24.5915H83.3601V5.17578H86.7318V14.163C87.3689 11.9715 88.6965 10.7229 91.0317 10.7229C94.1107 10.7229 95.6776 12.6372 95.6776 16.4643H95.6792Z" fill="#0E0B13"/>
<path d="M110.731 17.8244C110.731 22.1516 107.571 24.8702 103.776 24.8702C99.9807 24.8702 96.7935 22.1516 96.7935 17.8244C96.7935 13.4973 99.9532 10.7229 103.776 10.7229C107.599 10.7229 110.731 13.4686 110.731 17.8244ZM107.334 17.8244C107.334 15.1615 106.192 13.9129 103.776 13.9129C101.36 13.9129 100.193 15.1615 100.193 17.8244C100.193 20.4873 101.334 21.6802 103.776 21.6802C106.218 21.6802 107.334 20.4315 107.334 17.8244Z" fill="#0E0B13"/>
<path d="M133.269 16.5199V24.5914H129.897V16.7413C129.897 14.9098 128.995 13.9112 127.376 13.9112C125.386 13.9112 124.323 15.3812 124.323 18.7098V24.5898H120.952V16.6569C120.952 14.8254 120.049 13.9112 118.429 13.9112C116.543 13.9112 115.376 15.2984 115.376 18.0998V24.5898H112.004V10.9999H115.376V14.1613C116.013 11.9698 117.341 10.7212 119.676 10.7212C122.011 10.7212 123.552 11.8854 124.082 14.2154C124.905 11.8854 126.498 10.7212 128.754 10.7212C131.754 10.7212 133.268 12.6626 133.268 16.5183L133.269 16.5199Z" fill="#0E0B13"/>
<path d="M147.126 18.9058H137.888C138.099 21.1801 139.055 22.1229 141.099 22.1229C142.639 22.1229 143.303 21.6515 143.94 20.2086L146.861 21.3186C145.984 23.6757 143.94 24.8686 141.02 24.8686C137.039 24.8686 134.383 22.0942 134.383 17.8786C134.383 13.6629 137.064 10.7229 140.913 10.7229C144.762 10.7229 147.152 13.4128 147.152 17.6014C147.152 18.0458 147.152 18.35 147.126 18.9058ZM137.888 16.493H143.808C143.754 14.19 142.852 13.3858 140.941 13.3858C139.029 13.3858 138.127 14.3015 137.888 16.493Z" fill="#0E0B13"/>
<path d="M147.585 20.8472L150.745 19.9315C150.956 21.7072 151.859 22.1787 153.505 22.1787C154.805 22.1787 155.628 21.7072 155.628 20.7915C155.628 19.9585 155.256 19.5429 153.717 19.2928L151.54 18.9329C149.257 18.5443 147.85 17.1858 147.85 14.8558C147.85 12.2486 149.787 10.7229 153.054 10.7229C156.584 10.7229 158.177 12.2486 158.602 14.6615L155.628 15.41C155.442 13.69 154.805 13.2743 153.159 13.2743C151.885 13.2743 151.248 13.7744 151.248 14.6885C151.248 15.4371 151.592 15.9085 152.866 16.1028L155.522 16.5185C157.672 16.8242 159 18.1828 159 20.4013C159 23.2027 156.877 24.867 153.292 24.867C149.947 24.867 147.929 23.0642 147.583 20.8456L147.585 20.8472Z" fill="#0E0B13"/>
<path d="M27.1059 14.0579L27.0861 13.7681L21.3945 14.1885L21.4143 14.4784C21.4281 14.6727 21.4342 14.8702 21.4342 15.0708C21.4342 15.2715 21.4281 15.4674 21.4143 15.6633L21.3945 15.9531L27.0861 16.3736L27.1059 16.0837C27.1288 15.7493 27.141 15.4117 27.141 15.0708C27.141 14.73 27.1288 14.3924 27.1059 14.0579Z" fill="#EA3EFF"/>
<path d="M17.0883 7.71766L17.3368 7.84825L19.8945 2.51933L19.6461 2.38873C19.0699 2.08613 18.4678 1.82494 17.8566 1.61312L17.5929 1.52075L15.7927 7.17776L16.0564 7.26854C16.4085 7.39117 16.7561 7.54247 17.0883 7.71606V7.71766Z" fill="#EA3EFF"/>
<path d="M20.608 11.395C20.7741 11.7438 20.9189 12.1054 21.0348 12.4732L21.1216 12.7488L26.5358 10.8663L26.4489 10.5908C26.2447 9.95212 25.9962 9.32304 25.7066 8.72102L25.5816 8.46143L20.4814 11.1339L20.6064 11.3934L20.608 11.395Z" fill="#EA3EFF"/>
<path d="M18.7194 8.8579C18.9999 9.11272 19.2697 9.39302 19.5166 9.69084L19.698 9.91062L24.0101 6.00392L23.8272 5.78413C23.4081 5.27768 22.9462 4.79671 22.4584 4.35396L22.2481 4.16284L18.5076 8.66838L18.7179 8.8579H18.7194Z" fill="#EA3EFF"/>
<path d="M14.1375 23.2648C13.7656 23.2919 13.3785 23.2919 13.0035 23.2648L12.7261 23.2441L12.3252 29.191L12.6026 29.2117C12.9227 29.2356 13.2443 29.2483 13.5705 29.2483C13.8967 29.2483 14.2198 29.2356 14.5399 29.2117L14.8174 29.191L14.4165 23.2441L14.1391 23.2648H14.1375Z" fill="#EA3EFF"/>
<path d="M10.0525 22.4223L9.80404 22.2917L7.24634 27.6207L7.49479 27.7513C8.07096 28.0523 8.67152 28.3135 9.28275 28.5269L9.54644 28.6192L11.3481 22.9622L11.0844 22.8699C10.7308 22.7472 10.3833 22.5959 10.0525 22.4223Z" fill="#EA3EFF"/>
<path d="M17.0883 22.4223C16.7561 22.5959 16.407 22.7472 16.0564 22.8699L15.7927 22.9622L17.5929 28.6192L17.8566 28.5269C18.4678 28.3151 19.0699 28.0539 19.6461 27.7513L19.8945 27.6207L17.3368 22.2917L17.0883 22.4223Z" fill="#EA3EFF"/>
<path d="M21.0347 17.6668C20.9188 18.0347 20.774 18.3962 20.6079 18.745L20.4829 19.0046L25.5831 21.677L25.7081 21.4174C25.9977 20.8154 26.2477 20.1863 26.4504 19.5477L26.5373 19.2721L21.1231 17.3896L21.0362 17.6652L21.0347 17.6668Z" fill="#EA3EFF"/>
<path d="M8.42303 21.2803C8.13799 21.0223 7.86972 20.742 7.62736 20.4473L7.44445 20.2275L3.13232 24.1342L3.31524 24.354C3.73441 24.8605 4.19626 25.3415 4.68402 25.7842L4.89437 25.9753L8.63337 21.4714L8.42303 21.2803Z" fill="#EA3EFF"/>
<path d="M19.5151 20.449C19.2666 20.7469 18.9999 21.0272 18.7179 21.282L18.5076 21.4731L22.2481 25.977L22.4584 25.7859C22.9462 25.3432 23.4065 24.8606 23.8272 24.3557L24.0101 24.136L19.6995 20.2292L19.5166 20.449H19.5151Z" fill="#EA3EFF"/>
<path d="M7.62736 9.69084C7.87124 9.3978 8.13799 9.1175 8.42303 8.8579L8.63337 8.66838L4.89437 4.16284L4.68402 4.35396C4.19626 4.79671 3.73593 5.27768 3.31524 5.78413L3.13232 6.00392L7.44445 9.91062L7.62736 9.69084Z" fill="#EA3EFF"/>
<path d="M9.28421 1.613C8.67451 1.82482 8.07243 2.08601 7.49626 2.3886L7.2478 2.5192L9.80551 7.84812L10.054 7.71753C10.3847 7.54393 10.7323 7.39263 11.0859 7.27L11.3496 7.17922L9.54638 1.52222L9.28269 1.61459L9.28421 1.613Z" fill="#EA3EFF"/>
<path d="M6.10609 12.4732C6.22346 12.1038 6.36826 11.7406 6.53441 11.395L6.6594 11.1354L1.5577 8.46143L1.43271 8.72102C1.1431 9.32304 0.894649 9.95212 0.690398 10.5908L0.603516 10.8663L6.01616 12.7488L6.10457 12.4732H6.10609Z" fill="#EA3EFF"/>
<path d="M6.53459 18.7448C6.36845 18.3977 6.22517 18.0345 6.10627 17.6666L6.01787 17.3911L0.605225 19.272L0.692107 19.5475C0.894834 20.1846 1.14481 20.8137 1.43442 21.4157L1.55941 21.6769L6.65958 19.0044L6.53459 18.7448Z" fill="#EA3EFF"/>
<path d="M5.72664 15.6617C5.71292 15.4674 5.70682 15.2699 5.70682 15.0692C5.70682 14.8686 5.71292 14.6711 5.72664 14.4768L5.74646 14.1869L0.0548733 13.7681L0.035058 14.0579C0.0121941 14.3924 0 14.73 0 15.0708C0 15.4117 0.0121941 15.7477 0.035058 16.0822L0.0548733 16.372L5.74798 15.9516L5.72816 15.6617H5.72664Z" fill="#EA3EFF"/>
<path d="M12.6011 0.926703L12.3237 0.947407L12.7246 6.89427L13.002 6.87357C13.377 6.84649 13.7626 6.84649 14.1376 6.87357L14.415 6.89427L14.8159 0.947407L14.5385 0.926703C13.8983 0.878924 13.2413 0.878924 12.5996 0.926703H12.6011Z" fill="#EA3EFF"/>
</g>
<defs>
<clipPath id="clip0_742_19175">
<rect width="159" height="28.3567" fill="white" transform="translate(0 0.891602)"/>
</clipPath>
</defs>
</svg>