
<svg width="16" height="16" viewBox="0 0 16 16" fill="none" xmlns="http://www.w3.org/2000/svg">
<path fill-rule="evenodd" clip-rule="evenodd" d="M6.00873 0C2.6902 0 0 2.70081 0 6.03243C0 9.36405 2.6902 12.0649 6.00873 12.0649C7.45016 12.0649 8.77304 11.5553 9.80841 10.7059L14.8591 15.8025C15.1191 16.0649 15.5418 16.066 15.8032 15.8049C16.0646 15.5438 16.0657 15.1194 15.8057 14.857L10.7427 9.74801C11.5414 8.72385 12.0175 7.43396 12.0175 6.03243C12.0175 2.70081 9.32727 0 6.00873 0ZM1.33527 6.03243C1.33527 3.44117 3.42765 1.34054 6.00873 1.34054C8.58982 1.34054 10.6822 3.44117 10.6822 6.03243C10.6822 8.62369 8.58982 10.7243 6.00873 10.7243C3.42765 10.7243 1.33527 8.62369 1.33527 6.03243Z" fill="#616161"/>
</svg>
