
<svg width="21" height="22" viewBox="0 0 21 22" fill="none" xmlns="http://www.w3.org/2000/svg">
<path d="M17.5935 0.5C15.794 0.5 14.3355 1.95879 14.3355 3.75805C14.3355 4.04827 14.3764 4.32508 14.4475 4.59305L5.81365 8.90991C5.21708 8.15311 4.29668 7.66766 3.25805 7.66766C1.45856 7.66766 0 9.12646 0 10.9257C0 12.725 1.45856 14.1838 3.25805 14.1838C4.29708 14.1838 5.21708 13.689 5.81365 12.9316L14.4475 17.2484C14.3764 17.5162 14.3355 17.8032 14.3355 18.0934C14.3355 19.8926 15.794 21.3514 17.5935 21.3514C19.393 21.3514 20.8516 19.8926 20.8516 18.0934C20.8516 16.2941 19.393 14.8353 17.5935 14.8353C16.5551 14.8353 15.6345 15.3208 15.0379 16.0776L6.40407 11.771C6.56565 11.1889 6.51429 10.6264 6.40407 10.0808L15.0379 5.76391C15.6345 6.52158 16.5542 7.01611 17.5935 7.01611C19.393 7.01611 20.8516 5.55732 20.8516 3.75805C20.8516 1.95879 19.393 0.5 17.5935 0.5Z" fill="#EA3EFF"/>
</svg>
